HIERARCHY
ROOT SpineBase
{
  OFFSET 0.000000 0.000000 0.000000
  CHANNELS 6 Xposition Yposition Zposition Zrotation Xrotation Yrotation
  JOINT SpineMid
  {
    OFFSET -0.000000 35.667550 0.000000
    CHANNELS 3 Zrotation Xrotation Yrotation
    JOINT SpineShoulder
    {
      OFFSET -0.141789 26.479987 -0.920413
      CHANNELS 3 Zrotation Xrotation Yrotation
      JOINT Neck
      {
        OFFSET -0.116219 8.755402 -0.686021
        CHANNELS 3 Zrotation Xrotation Yrotation
        JOINT Head
        {
          OFFSET 2.063360 11.980988 3.030399
          CHANNELS 3 Zrotation Xrotation Yrotation
          End Site
          {
            OFFSET 0 0 0
          }
        }
      }
      JOINT ShoulderLeft
      {
        OFFSET -10.274058 -5.662398 -1.319778
        CHANNELS 3 Zrotation Xrotation Yrotation
        JOINT ElbowLeft
        {
          OFFSET -5.291895 -25.165691 9.343467
          CHANNELS 3 Zrotation Xrotation Yrotation
          JOINT WristLeft
          {
            OFFSET 20.912724 -13.695653 11.144793
            CHANNELS 3 Zrotation Xrotation Yrotation
            JOINT HandLeft
            {
              OFFSET 5.923313 -5.496299 3.838248
              CHANNELS 3 Zrotation Xrotation Yrotation
              JOINT HandTipLeft
              {
                OFFSET -0.563806 0.045244 -0.192384
                CHANNELS 3 Zrotation Xrotation Yrotation
                End Site
                {
                  OFFSET 0 0 0
                }
              }
              JOINT ThumbLeft
              {
                OFFSET -0.461188 0.629892 -2.421764
                CHANNELS 3 Zrotation Xrotation Yrotation
                End Site
                {
                  OFFSET 0 0 0
                }
              }
            }
          }
        }
      }
      JOINT ShoulderRight
      {
        OFFSET 7.100335 -5.234237 -12.614623
        CHANNELS 3 Zrotation Xrotation Yrotation
        JOINT ElbowRight
        {
          OFFSET 3.945814 -27.802813 0.066681
          CHANNELS 3 Zrotation Xrotation Yrotation
          JOINT WristRight
          {
            OFFSET 16.047675 -8.138257 19.965570
            CHANNELS 3 Zrotation Xrotation Yrotation
            JOINT HandRight
            {
              OFFSET 5.433746 -2.814096 7.071116
              CHANNELS 3 Zrotation Xrotation Yrotation
              JOINT HandTipRight
              {
                OFFSET 2.365262 -6.036787 2.240321
                CHANNELS 3 Zrotation Xrotation Yrotation
                End Site
                {
                  OFFSET 0 0 0
                }
              }
              JOINT ThumbRight
              {
                OFFSET -4.207444 -2.081234 -1.327203
                CHANNELS 3 Zrotation Xrotation Yrotation
                End Site
                {
                  OFFSET 0 0 0
                }
              }
            }
          }
        }
      }
    }
  }
  JOINT HipLeft
  {
    OFFSET -6.871175 1.163211 -0.903335
    CHANNELS 3 Zrotation Xrotation Yrotation
    JOINT KneeLeft
    {
      OFFSET -7.618439 -33.736790 3.590797
      CHANNELS 3 Zrotation Xrotation Yrotation
      JOINT AnkleLeft
      {
        OFFSET -0.681641 -39.211708 1.093239
        CHANNELS 3 Zrotation Xrotation Yrotation
        JOINT FootLeft
        {
          OFFSET -6.325603 -2.938262 -12.258889
          CHANNELS 3 Zrotation Xrotation Yrotation
          End Site
          {
            OFFSET 0 0 0
          }
        }
      }
    }
  }
  JOINT HipRight
  {
    OFFSET 5.611710 1.343073 -6.636543
    CHANNELS 3 Zrotation Xrotation Yrotation
    JOINT KneeRight
    {
      OFFSET -3.602011 -32.094190 -3.789927
      CHANNELS 3 Zrotation Xrotation Yrotation
      JOINT AnkleRight
      {
        OFFSET -2.012245 -37.823738 -0.931915
        CHANNELS 3 Zrotation Xrotation Yrotation
        JOINT FootRight
        {
          OFFSET -6.516004 -2.902824 -12.211528
          CHANNELS 3 Zrotation Xrotation Yrotation
          End Site
          {
            OFFSET 0 0 0
          }
        }
      }
    }
  }
}
MOTION
Frames: 9
Frame Time: 0.033333
42.708383 75.075187 297.185399 -5.636540 -0.823809 20.581043 0.765173 0.074663 -20.785018 1.938469 0.580174 -0.053098 3.992804 -6.398220 1.154065 0.000000 0.000000 0.000000 4.779370 2.483366 0.325674 -1.739581 0.402330 4.467602 0.653314 0.068406 -0.779625 -0.891932 -3.019008 -3.860559 0.000000 0.000000 0.000000 0.000000 0.000000 0.000000 24.705600 -6.425671 0.611509 -24.657349 10.819983 5.902485 -4.456653 6.324174 0.149090 6.703636 -4.242092 -0.134204 0.000000 0.000000 0.000000 0.000000 0.000000 0.000000 13.308684 -3.619928 -19.460725 -8.094512 -0.331291 -0.798590 0.413417 0.673529 -3.124160 0.000000 0.000000 0.000000 14.172457 -4.468058 -21.226324 -7.846725 1.396028 0.953678 -1.053101 -0.685835 -2.961540 0.000000 0.000000 0.000000
42.769282 75.268057 297.318601 -5.462651 -0.939026 20.668140 0.528280 0.147561 -20.879670 1.821695 0.618383 -0.065516 4.376894 -6.535521 1.171502 0.000000 0.000000 0.000000 5.141201 3.073549 0.283958 -2.366058 -0.021116 4.250843 0.733660 0.036715 -0.742157 -0.515623 -3.089935 -3.652453 0.000000 0.000000 0.000000 0.000000 0.000000 0.000000 29.485209 -9.228028 1.110102 -33.843948 19.405853 14.819773 -3.536866 7.075562 4.764322 11.279338 -11.362960 -7.297409 0.000000 0.000000 0.000000 0.000000 0.000000 0.000000 13.053437 -3.073868 -19.718218 -7.840904 -0.681266 -0.717138 0.543576 0.689854 -3.699885 0.000000 0.000000 0.000000 13.566277 -4.055997 -21.336227 -7.017341 1.368505 0.882875 -1.211116 -0.711813 -3.531225 0.000000 0.000000 0.000000
42.707428 75.497869 297.401134 -5.561190 -1.018169 20.875549 0.582116 0.123677 -21.094142 1.744387 0.618182 -0.074172 4.644103 -6.337765 1.126210 0.000000 0.000000 0.000000 4.636719 2.868645 0.136668 -2.151625 0.281021 4.159178 0.815363 -0.002344 -0.693134 -0.179917 -3.099160 -3.411559 0.000000 0.000000 0.000000 0.000000 0.000000 0.000000 33.797419 -12.580083 1.859069 -43.705293 26.823907 24.456022 -1.661978 5.293582 8.992797 16.912988 -15.757011 -10.406274 0.000000 0.000000 0.000000 0.000000 0.000000 0.000000 13.207664 -2.843878 -20.005195 -7.221794 -0.248763 -0.664118 0.063319 0.009653 -4.096666 0.000000 0.000000 0.000000 13.904017 -4.052560 -21.576200 -7.330763 1.202463 0.921260 -1.024462 -0.628764 -3.928907 0.000000 0.000000 0.000000
42.657981 75.730012 297.460002 -5.585879 -1.074316 21.080550 0.528631 0.124800 -21.305580 1.599438 0.602509 -0.089049 4.903861 -6.168544 1.117110 0.000000 0.000000 0.000000 4.453041 2.720585 0.061929 -1.647815 0.467792 4.279808 0.787469 0.005474 -0.694473 -0.250058 -3.053370 -3.416082 0.000000 0.000000 0.000000 0.000000 0.000000 0.000000 37.945128 -15.655905 2.781304 -52.497146 31.615654 33.253929 0.207562 2.664550 11.779409 20.472642 -19.932779 -12.345734 0.000000 0.000000 0.000000 0.000000 0.000000 0.000000 13.282564 -2.710794 -20.257350 -6.997313 -0.457207 -0.628298 -0.053945 0.107840 -4.601886 0.000000 0.000000 0.000000 13.938465 -4.044326 -21.789382 -7.268543 1.175353 0.921051 -0.980829 -0.589056 -4.429049 0.000000 0.000000 0.000000
42.614873 75.932943 297.487600 -5.616681 -1.102760 21.236336 0.490528 0.116619 -21.466166 1.441640 0.567603 -0.104587 5.220431 -6.381138 1.168719 0.000000 0.000000 0.000000 3.427337 2.032407 -0.195951 0.267051 1.083457 4.889753 0.635165 0.061403 -0.743837 -0.771757 -2.908211 -3.653866 0.000000 0.000000 0.000000 0.000000 0.000000 0.000000 41.051666 -18.795588 3.764127 -57.928515 34.434502 39.901454 1.735900 0.472399 13.682694 22.429408 -22.872777 -13.644255 0.000000 0.000000 0.000000 0.000000 0.000000 0.000000 13.404898 -2.600158 -20.450851 -6.915756 -0.621974 -0.600288 -0.043907 0.146218 -5.219866 0.000000 0.000000 0.000000 13.912289 -4.048855 -21.941841 -7.150629 1.147315 0.914567 -0.911663 -0.521332 -5.043696 0.000000 0.000000 0.000000
42.598263 76.082705 297.484763 -5.627072 -1.096559 21.227665 0.445311 0.094632 -21.460314 1.287099 0.525303 -0.119156 5.512982 -6.866991 1.270087 0.000000 0.000000 0.000000 2.718027 1.250022 -0.329145 1.501860 1.833226 5.120699 0.548899 0.089024 -0.759099 -1.014213 -2.796087 -3.717732 0.000000 0.000000 0.000000 0.000000 0.000000 0.000000 43.482118 -21.986206 4.803621 -59.611760 35.861764 42.847020 1.997719 0.775786 15.539735 23.900151 -30.198623 -13.942371 0.000000 0.000000 0.000000 0.000000 0.000000 0.000000 13.475451 -2.525255 -20.463679 -6.895147 -0.732978 -0.583761 0.045825 0.188090 -5.875978 0.000000 0.000000 0.000000 13.825835 -3.986001 -21.930439 -6.980584 1.048421 0.906558 -0.828003 -0.415700 -5.700158 0.000000 0.000000 0.000000
42.605221 76.150121 297.486734 -5.626574 -1.101777 20.884962 0.414521 0.090988 -21.119415 1.116878 0.474961 -0.134322 5.885633 -7.498784 1.384286 0.000000 0.000000 0.000000 2.295042 1.432310 -0.555661 2.162555 1.746329 5.430923 0.535492 0.096290 -0.770122 -1.053248 -2.807810 -3.759450 0.000000 0.000000 0.000000 0.000000 0.000000 0.000000 44.713828 -24.331117 5.516521 -55.110093 34.995651 38.870605 3.475216 -1.096019 12.481629 25.796840 -30.933511 -9.812681 0.000000 0.000000 0.000000 0.000000 0.000000 0.000000 13.599334 -2.396785 -20.139847 -6.984804 -0.859808 -0.579083 0.196638 0.261063 -6.551896 0.000000 0.000000 0.000000 13.740574 -3.699133 -21.612874 -6.747355 0.818355 0.900788 -0.737717 -0.303366 -6.378852 0.000000 0.000000 0.000000
42.614577 76.207236 297.483626 -5.637107 -1.106674 20.398857 0.394769 0.095222 -20.634817 0.964135 0.420432 -0.148586 6.232305 -8.286728 1.531652 0.000000 0.000000 0.000000 1.805591 1.308406 -0.742215 3.420001 1.846512 5.897745 0.404985 0.147223 -0.817431 -1.517032 -2.695669 -3.990539 0.000000 0.000000 0.000000 0.000000 0.000000 0.000000 45.228385 -26.523368 6.074301 -45.627223 30.791917 28.194939 4.632856 -2.921081 8.103068 24.590667 -25.318882 -5.892747 0.000000 0.000000 0.000000 0.000000 0.000000 0.000000 13.731657 -2.305663 -19.654331 -7.143081 -0.911629 -0.590974 0.387278 0.322933 -7.169268 0.000000 0.000000 0.000000 13.691630 -3.361858 -21.159705 -6.542220 0.543551 0.900658 -0.641628 -0.180447 -7.002530 0.000000 0.000000 0.000000
42.641637 76.251404 297.479713 -5.628568 -1.118000 20.070290 0.377955 0.110911 -20.306690 0.792289 0.357290 -0.163941 6.408310 -8.981206 1.694663 0.000000 0.000000 0.000000 1.817960 1.649873 -0.838791 3.474203 1.609272 5.987897 0.424133 0.140809 -0.811890 -1.421612 -2.726360 -3.950968 0.000000 0.000000 0.000000 0.000000 0.000000 0.000000 45.654751 -27.476223 6.334177 -42.755651 29.199072 24.996062 6.303850 -12.651982 -2.694013 24.894317 -17.228957 0.363228 0.000000 0.000000 0.000000 0.000000 0.000000 0.000000 13.822071 -2.224154 -19.330524 -7.296612 -0.922567 -0.601149 0.619485 0.337212 -7.884216 0.000000 0.000000 0.000000 13.559882 -3.065374 -20.853761 -6.285007 0.306498 0.893453 -0.529685 -0.060398 -7.726083 0.000000 0.000000 0.000000
